<mxfile host="app.diagrams.net" modified="2021-07-28T08:46:44.503Z" agent="5.0 (Windows NT 10.0; Win64; x64) AppleWebKit/537.36 (KHTML, like Gecko) Chrome/92.0.4515.107 Safari/537.36 Edg/92.0.902.55" etag="GxjUcsBS1vksALtP6X1V" version="14.8.3" type="github">
  <diagram id="prtHgNgQTEPvFCAcTncT" name="Page-1">
    <mxGraphModel dx="1422" dy="833" grid="1" gridSize="10" guides="1" tooltips="1" connect="1" arrows="1" fold="1" page="1" pageScale="1" pageWidth="827" pageHeight="1169" math="0" shadow="0">
      <root>
        <mxCell id="0" />
        <mxCell id="1" parent="0" />
        <mxCell id="-Gta0CSCMfugg82unb2U-4" value="" style="edgeStyle=orthogonalEdgeStyle;rounded=0;orthogonalLoop=1;jettySize=auto;html=1;" edge="1" parent="1" source="-Gta0CSCMfugg82unb2U-1" target="-Gta0CSCMfugg82unb2U-3">
          <mxGeometry relative="1" as="geometry" />
        </mxCell>
        <mxCell id="-Gta0CSCMfugg82unb2U-1" value="创建一个&amp;nbsp;cra-template" style="whiteSpace=wrap;html=1;" vertex="1" parent="1">
          <mxGeometry x="40" y="40" width="160" height="40" as="geometry" />
        </mxCell>
        <mxCell id="-Gta0CSCMfugg82unb2U-6" value="" style="edgeStyle=orthogonalEdgeStyle;rounded=0;orthogonalLoop=1;jettySize=auto;html=1;" edge="1" parent="1" source="-Gta0CSCMfugg82unb2U-3" target="-Gta0CSCMfugg82unb2U-5">
          <mxGeometry relative="1" as="geometry" />
        </mxCell>
        <mxCell id="-Gta0CSCMfugg82unb2U-3" value="包含&amp;nbsp;rewire&amp;nbsp;依赖，以及&amp;nbsp;rewire&amp;nbsp;的构建命令" style="whiteSpace=wrap;html=1;" vertex="1" parent="1">
          <mxGeometry x="280" y="40" width="160" height="40" as="geometry" />
        </mxCell>
        <mxCell id="-Gta0CSCMfugg82unb2U-8" value="" style="edgeStyle=orthogonalEdgeStyle;rounded=0;orthogonalLoop=1;jettySize=auto;html=1;" edge="1" parent="1" source="-Gta0CSCMfugg82unb2U-5" target="-Gta0CSCMfugg82unb2U-7">
          <mxGeometry relative="1" as="geometry" />
        </mxCell>
        <mxCell id="-Gta0CSCMfugg82unb2U-10" value="" style="edgeStyle=orthogonalEdgeStyle;rounded=0;orthogonalLoop=1;jettySize=auto;html=1;" edge="1" parent="1" source="-Gta0CSCMfugg82unb2U-5" target="-Gta0CSCMfugg82unb2U-9">
          <mxGeometry relative="1" as="geometry" />
        </mxCell>
        <mxCell id="-Gta0CSCMfugg82unb2U-5" value="添加重写部分的&amp;nbsp;webpack&amp;nbsp;配置" style="whiteSpace=wrap;html=1;" vertex="1" parent="1">
          <mxGeometry x="275" y="160" width="170" height="40" as="geometry" />
        </mxCell>
        <mxCell id="-Gta0CSCMfugg82unb2U-7" value="添加&amp;nbsp;extension&amp;nbsp;需要的其他配置和文件" style="whiteSpace=wrap;html=1;" vertex="1" parent="1">
          <mxGeometry x="275" y="280" width="170" height="40" as="geometry" />
        </mxCell>
        <mxCell id="-Gta0CSCMfugg82unb2U-9" value="entry&amp;nbsp;point&lt;br&gt;externals&lt;br&gt;esbuild-loader" style="whiteSpace=wrap;html=1;" vertex="1" parent="1">
          <mxGeometry x="550" y="150" width="120" height="60" as="geometry" />
        </mxCell>
      </root>
    </mxGraphModel>
  </diagram>
</mxfile>
